<svg width="31" height="34" viewBox="0 0 31 34" fill="none" xmlns="http://www.w3.org/2000/svg">
<path d="M21.9175 16.7641C20.3014 18.2941 18.1558 19.2332 15.7913 19.2332C13.3916 19.2332 11.2107 18.2636 9.5873 16.6883C5.81138 17.7486 3.4751 21.3689 3.4751 25.6936V27.8976C3.4751 33.0554 27.7335 33.0554 27.7335 27.8976V25.6936C27.7333 21.4828 25.5172 17.923 21.9175 16.7641ZM15.7913 17.6655C19.9767 17.6655 23.3787 14.1587 23.3787 9.82656C23.3787 5.4944 19.9837 1.98022 15.7913 1.98022C11.6129 1.98022 8.21103 5.4945 8.21103 9.82663C8.21103 14.1589 11.6129 17.6655 15.7913 17.6655V17.6655Z" fill="black"/>
</svg>
