<svg width="33" height="35" viewBox="0 0 33 35" fill="none" xmlns="http://www.w3.org/2000/svg">
<path d="M24.5909 15.2565V11.5297C24.5909 11.5297 24.5909 2.83496 16.4882 2.83496C8.3856 2.83496 8.3856 11.5297 8.3856 11.5297V15.2565H4.9126V32.6494H28.0639V15.2565H24.5909ZM17.6449 24.853V28.9226H15.3285V24.853C14.6401 24.4238 14.1719 23.6285 14.1719 22.7135C14.1719 21.3392 15.2107 20.2278 16.4882 20.2278C17.7658 20.2278 18.8046 21.3392 18.8046 22.7135C18.8046 23.6285 18.3333 24.4205 17.6449 24.853ZM22.2776 15.2565H10.6989V11.5464C10.7113 10.5049 11.0524 5.3206 16.4882 5.3206C21.9241 5.3206 22.2621 10.5082 22.2776 11.5331V15.2565Z" fill="black"/>
</svg>
