<svg width="39" height="42" viewBox="0 0 39 42" fill="none" xmlns="http://www.w3.org/2000/svg">
<path d="M19.4882 22.6535L35.3038 10.6723C35.2166 10.656 35.1408 10.6276 35.0536 10.6276H3.92649C3.83932 10.6276 3.76352 10.6601 3.67635 10.6723L19.4882 22.6535ZM36.4673 11.9127C36.4673 11.7785 36.4256 11.6524 36.3801 11.5304L25.1693 20.0263L36.3991 30.2343C36.4294 30.1326 36.4673 30.031 36.4673 29.9212V11.9127ZM2.5962 11.5304C2.55451 11.6524 2.50903 11.7785 2.50903 11.9168V29.9252C2.50903 30.0391 2.55072 30.1367 2.58104 30.2384L13.8108 20.0263L2.5962 11.5304Z" fill="black"/>
<path d="M24.0778 20.8518L19.9391 23.9834C19.8103 24.085 19.6473 24.1338 19.4881 24.1338C19.3289 24.1338 19.166 24.085 19.0371 23.9834L14.9022 20.8518L3.58154 31.1412C3.69145 31.1697 3.80515 31.2063 3.92264 31.2063H35.0498C35.1711 31.2063 35.2848 31.1697 35.3985 31.1412L24.0778 20.8518Z" fill="black"/>
</svg>
