<svg width="29" height="31" viewBox="0 0 29 31" fill="none" xmlns="http://www.w3.org/2000/svg">
<g clip-path="url(#clip0_1_506)">
<path d="M28.3647 28.2168V29.2011C28.3647 30.0375 27.7329 30.7155 26.9534 30.7155H24.1309C10.8809 30.7155 0.139648 19.1893 0.139648 4.97101V1.94224C0.139648 1.10587 0.771493 0.427856 1.5509 0.427856H7.19591C7.97532 0.427856 8.60716 1.10587 8.60716 1.94224V7.99977C8.60716 8.84783 8.16967 9.98361 7.61929 10.5742L4.59921 13.815C6.74431 19.2668 10.8087 23.6282 15.8892 25.9301L18.8811 22.7196C19.4456 22.1138 20.504 21.6444 21.2802 21.6444H26.9534C27.7268 21.6529 28.3506 22.3276 28.3506 23.1587V28.2319L28.3647 28.2168Z" fill="black"/>
</g>
<defs>
<clipPath id="clip0_1_506">
<rect width="28.225" height="30.2877" fill="white" transform="translate(0.139648 0.427856)"/>
</clipPath>
</defs>
</svg>
